<svg width="300" height="600" viewBox="0 0 300 600" fill="none" xmlns="http://www.w3.org/2000/svg">
  <!-- Phone Frame -->
  <rect x="20" y="20" width="260" height="560" rx="30" ry="30" fill="#1f2937" stroke="#374151" stroke-width="2"/>
  
  <!-- Screen -->
  <rect x="35" y="80" width="230" height="440" rx="15" ry="15" fill="#ffffff"/>
  
  <!-- Status Bar -->
  <rect x="45" y="90" width="210" height="20" fill="#f3f4f6"/>
  <circle cx="55" cy="100" r="3" fill="#10b981"/>
  <rect x="240" y="95" width="15" height="10" rx="2" fill="#6b7280"/>
  
  <!-- App Header -->
  <rect x="45" y="120" width="210" height="40" fill="#3b82f6"/>
  <text x="150" y="145" text-anchor="middle" fill="white" font-family="Arial" font-size="16" font-weight="bold">MoodFlow AI</text>
  
  <!-- Content Area -->
  <rect x="55" y="180" width="190" height="60" rx="8" fill="#dbeafe"/>
  <circle cx="80" cy="200" r="8" fill="#3b82f6"/>
  <rect x="100" y="190" width="120" height="8" rx="4" fill="#93c5fd"/>
  <rect x="100" y="210" width="80" height="8" rx="4" fill="#bfdbfe"/>
  
  <rect x="55" y="260" width="190" height="60" rx="8" fill="#dcfce7"/>
  <circle cx="80" cy="280" r="8" fill="#10b981"/>
  <rect x="100" y="270" width="120" height="8" rx="4" fill="#86efac"/>
  <rect x="100" y="290" width="80" height="8" rx="4" fill="#bbf7d0"/>
  
  <rect x="55" y="340" width="190" height="60" rx="8" fill="#fef3c7"/>
  <circle cx="80" cy="360" r="8" fill="#f59e0b"/>
  <rect x="100" y="350" width="120" height="8" rx="4" fill="#fbbf24"/>
  <rect x="100" y="370" width="80" height="8" rx="4" fill="#fde68a"/>
  
  <!-- Bottom Navigation -->
  <rect x="45" y="480" width="210" height="30" fill="#f9fafb"/>
  <circle cx="80" cy="495" r="6" fill="#3b82f6"/>
  <circle cx="150" cy="495" r="6" fill="#6b7280"/>
  <circle cx="220" cy="495" r="6" fill="#6b7280"/>
  
  <!-- Home Button -->
  <circle cx="150" cy="550" r="15" fill="#374151"/>
</svg>